<?xml version="1.0" encoding="utf-8"?>
<!-- Generator: Adobe Illustrator 23.0.2, SVG Export Plug-In . SVG Version: 6.00 Build 0)  -->
<svg version="1.1" id="bold" xmlns="http://www.w3.org/2000/svg" xmlns:xlink="http://www.w3.org/1999/xlink" x="0px" y="0px"
	 viewBox="0 0 512 512" style="enable-background:new 0 0 512 512;" xml:space="preserve">
<style type="text/css">
	.st0{fill:#003987;}
</style>
<path class="st0" d="M256,170.7c-70.6,0-128,57.4-128,128s57.4,128,128,128s128-57.4,128-128S326.6,170.7,256,170.7z M313.7,326.3
	c8.3,8.3,8.3,21.8,0,30.2c-4.2,4.2-9.6,6.3-15.1,6.3c-5.5,0-10.9-2.1-15.1-6.3L256,328.8l-27.6,27.6c-4.2,4.2-9.6,6.3-15.1,6.3
	c-5.5,0-10.9-2.1-15.1-6.3c-8.3-8.3-8.3-21.8,0-30.2l27.6-27.6l-27.6-27.6c-8.3-8.3-8.3-21.8,0-30.2c8.3-8.3,21.8-8.3,30.2,0
	l27.6,27.6l27.6-27.6c8.3-8.3,21.8-8.3,30.2,0c8.3,8.3,8.3,21.8,0,30.2l-27.6,27.6L313.7,326.3z"/>
<path class="st0" d="M448,21.3H64c-35.3,0-64,28.7-64,64v341.3c0,35.3,28.7,64,64,64h384c35.3,0,64-28.7,64-64V85.3
	C512,50,483.3,21.3,448,21.3z M448,448H64c-11.8,0-21.3-9.6-21.3-21.3V128h426.7v298.7C469.3,438.4,459.8,448,448,448z"/>
</svg>
